<svg width="30" height="30" viewBox="0 0 30 30" fill="none" xmlns="http://www.w3.org/2000/svg">
<g id="square-buttons">
<rect id="container" x="0.5" y="0.5" width="29" height="29" fill="#F3F2F2" stroke="#BCB8B8"/>
<path id="user-icon" d="M22.9982 15.0121C22.9706 13.9689 22.9925 12.9237 22.9925 11.8795V8.67461C22.9925 7.87239 22.9896 7.87818 22.2682 7.51469C21.0215 6.88798 19.6996 6.50231 18.3329 6.27963C15.8204 5.86887 13.3127 5.89877 10.8192 6.44836C9.54298 6.72989 8.31241 7.1358 7.18751 7.82903C7.04949 7.91386 7 8.00835 7 8.17322C7.00572 10.5431 6.99717 12.9131 7.01046 15.283C7.01334 15.6715 7.06757 16.0707 7.16562 16.4467C7.54816 17.9219 8.26482 19.2255 9.20988 20.4066C10.6841 22.2491 12.5466 23.462 14.8382 23.9817C14.9344 24.0039 15.0438 24.0068 15.14 23.9856C16.4847 23.6944 17.7134 23.1352 18.8221 22.3137C20.3448 21.1837 21.4783 19.7239 22.2768 18.0019C22.7136 17.0599 23.0267 16.0813 22.9982 15.0121ZM9.09375 9.46425C9.02331 9.49415 8.95193 9.52211 8.84728 9.56453C10.0988 8.19346 11.3921 7.91288 13.0624 8.57527C13.2242 8.63986 13.3831 8.71316 13.543 8.78354C13.8903 8.93396 14.1016 9.25504 14.0997 9.62912C14.0978 9.97717 13.878 10.3021 13.5563 10.4342C13.2232 10.5711 12.8464 10.4824 12.5808 10.2047C12.5589 10.1816 12.5361 10.1594 12.5142 10.1363C11.4007 9.01494 10.5413 8.84621 9.09375 9.46425ZM14.0731 12.298C13.1109 13.4684 10.7516 13.5186 9.69331 12.296C10.7611 11.1149 13.0966 11.1226 14.0731 12.298ZM15.8908 22.1151C15.8899 22.1643 15.8594 22.224 15.8242 22.2607C15.5606 22.5364 15.2922 22.8083 15.001 23.1072C14.705 22.8054 14.4214 22.5191 14.1425 22.2279C14.114 22.199 14.1045 22.1402 14.1045 22.0958C14.1016 21.5433 14.1026 20.9908 14.1026 20.4201H15.8937C15.8937 20.9957 15.8956 21.5549 15.8908 22.1151ZM18.8811 17.3367C18.4566 17.9759 17.859 18.3529 17.1128 18.4869C16.4124 18.6123 15.7557 18.4879 15.1552 18.1013C15.0372 18.026 14.9591 18.029 14.8401 18.1013C13.5449 18.8841 12.0317 18.5959 11.1485 17.3646C10.6783 16.7109 10.271 16.0109 9.83704 15.3312C9.78755 15.2521 9.75233 15.1644 9.74471 15.039C9.96837 15.1644 10.1996 15.2772 10.4128 15.418C10.9629 15.7824 11.513 16.1469 12.0488 16.5326C12.7483 17.0378 13.5192 16.9992 14.1435 16.3975C14.429 16.1209 14.7098 15.8383 15.0039 15.5482C15.2494 15.794 15.5025 16.0447 15.7529 16.2973C16.4628 17.0146 17.1785 17.0638 18.0075 16.4824C18.6127 16.0582 19.2371 15.661 19.8547 15.256C19.9794 15.175 20.1164 15.1143 20.2478 15.0439C20.2754 15.068 20.303 15.0911 20.3296 15.1152C19.8471 15.8557 19.3694 16.6 18.8811 17.3367ZM15.9232 12.3037C16.933 11.1062 19.2923 11.1178 20.2925 12.3028C19.3037 13.48 16.9434 13.506 15.9232 12.3037ZM21.11 9.52983C20.7959 9.42471 20.4828 9.31384 20.1659 9.21742C19.3075 8.95806 18.5566 9.18272 17.8904 9.75637C17.6563 9.95792 17.4459 10.1932 17.1928 10.3658C16.7997 10.6348 16.2496 10.4805 16.0155 10.0717C15.7767 9.65323 15.9042 9.05735 16.3191 8.85106C16.9168 8.5531 17.5363 8.31304 18.2121 8.24652C19.0524 8.16456 19.7938 8.40461 20.4543 8.92045C20.6912 9.10556 20.9121 9.3129 21.1405 9.51053C21.13 9.51726 21.1205 9.52305 21.11 9.52983Z" fill="#2D2B2A"/>
</g>
</svg>
