<svg width="30" height="30" viewBox="0 0 30 30" fill="none" xmlns="http://www.w3.org/2000/svg">
<g id="square-buttons">
<rect id="container" x="0.5" y="0.5" width="29" height="29" fill="#F3F2F2" stroke="#BCB8B8"/>
<path id="dark-theme-icon" fill-rule="evenodd" clip-rule="evenodd" d="M12.6044 7.18283C12.7858 7.36422 12.8377 7.6381 12.7353 7.87327C12.3729 8.70575 12.2199 9.71273 12.2199 10.7447C12.2199 14.6301 15.3699 17.7801 19.2553 17.7801C20.2873 17.7801 21.2943 17.6271 22.1267 17.2647C22.3619 17.1623 22.6358 17.2142 22.8172 17.3956C22.9985 17.5769 23.0505 17.8508 22.9481 18.086C21.6666 21.0301 18.67 23 15.2837 23C10.7089 23 7 19.2911 7 14.7163C7 11.33 8.96993 8.33345 11.914 7.05188C12.1492 6.94951 12.4231 7.00145 12.6044 7.18283Z" fill="#2D2B2A"/>
</g>
</svg>
